<?xml version="1.0" standalone="no"?>
<!DOCTYPE svg PUBLIC "-//W3C//DTD SVG 20010904//EN"
 "http://www.w3.org/TR/2001/REC-SVG-20010904/DTD/svg10.dtd">
<svg version="1.0" xmlns="http://www.w3.org/2000/svg"
 width="460.000000pt" height="460.000000pt" viewBox="0 0 460.000000 460.000000"
 preserveAspectRatio="xMidYMid meet">
<metadata>
Created by potrace 1.14, written by Peter Selinger 2001-2017
</metadata>
<g transform="translate(0.000000,460.000000) scale(0.100000,-0.100000)"
fill="#000000" stroke="none">
<path d="M2039 4595 c-4 -3 -26 -8 -50 -10 -41 -4 -114 -16 -181 -29 -103 -21
-91 -18 -153 -39 -27 -9 -54 -17 -60 -18 -5 -1 -19 -6 -30 -12 -11 -6 -22 -12
-25 -12 -47 -11 -85 -27 -190 -78 -69 -33 -127 -63 -130 -66 -3 -3 -21 -14
-40 -23 -40 -19 -88 -48 -107 -63 -7 -5 -18 -15 -25 -20 -7 -6 -29 -20 -48
-32 -19 -12 -48 -34 -64 -48 -16 -14 -32 -25 -35 -25 -4 0 -26 -18 -50 -40
-23 -22 -46 -40 -49 -40 -7 0 -102 -87 -102 -94 0 -2 -21 -26 -47 -53 -27 -28
-65 -70 -86 -93 -47 -53 -167 -224 -167 -238 0 -6 -4 -12 -9 -14 -4 -1 -20
-23 -34 -48 -30 -53 -158 -311 -162 -325 -1 -5 -7 -23 -14 -39 -13 -33 -59
-173 -66 -202 -25 -104 -55 -248 -60 -286 -4 -26 -10 -60 -14 -75 -9 -37 -6
-464 4 -528 4 -27 9 -57 10 -65 7 -56 18 -110 40 -200 22 -85 21 -83 28 -100
5 -13 16 -54 22 -85 2 -5 12 -30 23 -55 11 -25 30 -72 43 -105 13 -33 33 -78
46 -100 12 -22 38 -72 58 -112 20 -40 43 -77 51 -84 8 -6 14 -16 14 -21 0 -12
106 -162 179 -253 121 -152 304 -314 511 -452 90 -60 318 -180 415 -218 39
-15 79 -31 90 -36 27 -11 129 -39 135 -37 3 1 14 -4 25 -10 12 -5 40 -13 64
-17 24 -3 54 -10 67 -15 13 -5 24 -7 24 -5 0 2 12 0 27 -6 28 -10 62 -14 253
-24 58 -3 117 -7 133 -9 15 -2 27 0 27 4 0 4 16 4 34 0 19 -4 37 -5 40 -2 6 5
66 6 84 2 4 -1 12 -1 17 0 6 1 24 4 40 5 130 13 164 17 191 26 18 5 36 9 40 8
5 -1 16 0 24 4 16 6 90 25 130 33 14 3 45 12 70 20 25 9 52 17 60 19 34 7 70
25 70 34 0 6 6 8 13 5 18 -6 354 163 402 203 12 10 27 19 34 21 7 1 19 8 25
15 7 7 25 21 41 32 15 11 51 39 81 63 29 23 55 42 57 42 11 0 217 201 217 212
0 5 5 6 10 3 6 -3 10 -1 10 5 0 6 14 26 32 46 18 19 39 44 48 56 8 11 27 35
42 53 16 18 28 38 28 44 0 6 4 11 8 11 4 0 16 15 27 33 10 17 21 34 24 37 14
11 65 96 63 102 -1 5 1 8 6 8 4 0 16 20 27 45 11 25 23 45 26 45 4 0 10 12 13
26 4 15 14 33 21 41 8 8 15 23 15 34 0 10 3 19 8 19 4 0 15 21 25 48 10 26 23
55 28 65 10 18 37 92 57 157 10 31 18 73 25 120 2 8 6 21 10 27 4 7 9 30 11
51 1 21 6 44 10 51 5 7 10 36 11 64 1 29 6 59 9 68 6 15 2 517 -5 629 -2 30
-7 58 -11 61 -5 3 -10 23 -13 45 -2 21 -8 52 -14 67 -6 15 -9 27 -6 27 2 0 -2
18 -10 40 -8 22 -11 40 -8 40 4 0 2 5 -5 12 -7 7 -12 22 -12 35 0 22 -3 30
-43 128 -41 102 -50 122 -89 200 -64 127 -194 345 -218 365 -3 3 -17 21 -30
40 -13 19 -31 42 -40 50 -8 8 -28 33 -44 55 -33 45 -162 173 -216 213 -19 15
-39 32 -45 38 -19 21 -193 144 -204 144 -6 0 -11 4 -11 9 0 16 -310 181 -407
217 -26 9 -52 21 -58 26 -5 4 -18 8 -30 8 -12 0 -25 4 -30 9 -6 5 -23 12 -40
15 -16 2 -46 10 -65 16 -19 6 -46 13 -60 16 -14 2 -36 9 -50 13 -14 5 -45 12
-70 16 -25 3 -61 9 -80 12 -51 8 -634 16 -641 8z"/>
</g>
</svg>
